<?xml version="1.0" encoding="iso-8859-1"?>
<!-- Uploaded to: SVG Repo, www.svgrepo.com, Generator: SVG Repo Mixer Tools -->
<svg version="1.1" id="Capa_1" xmlns="http://www.w3.org/2000/svg" xmlns:xlink="http://www.w3.org/1999/xlink" 
	 viewBox="0 0 412.206 412.206" xml:space="preserve">
<g>
	<path style="fill:#FFCC66;" d="M100.781,401.818c3.794-0.658,6.255-2.084,9.158-3.767c4.451-2.579,9.496-5.503,19.172-5.503
		c9.678,0,14.723,2.924,19.174,5.503c4.006,2.321,7.17,4.155,14.158,4.155c6.987,0,10.15-1.834,14.156-4.155
		c4.449-2.579,9.494-5.503,19.17-5.503c9.676,0,14.721,2.924,19.17,5.503c4.006,2.321,7.168,4.155,14.156,4.155
		c6.987,0,10.149-1.834,14.153-4.154c4.451-2.58,9.496-5.504,19.172-5.504s14.721,2.924,19.17,5.503
		c4.006,2.321,7.168,4.155,14.154,4.155s10.148-1.834,14.152-4.154c4.451-2.58,9.494-5.504,19.168-5.504
		c9.676,0,14.719,2.924,19.168,5.504c2.902,1.682,5.361,3.107,9.152,3.766v-22.013H100.781V401.818z"/>
	<path style="fill:#999999;" d="M359.484,46.927H98.681c-0.57,1.984-1.23,5.254-1.936,9.694H361.42
		C360.715,52.182,360.055,48.911,359.484,46.927z"/>
	<path style="fill:#999999;" d="M98.679,369.805h260.807c0.57-1.986,1.23-5.257,1.934-9.694H96.746
		C97.45,364.548,98.109,367.819,98.679,369.805z"/>
	<path style="fill:#CC9933;" d="M229.081,175.806c-4.875,0-8.842,3.967-8.842,8.842s3.967,8.841,8.842,8.841
		c4.876,0,8.842-3.966,8.842-8.841S233.957,175.806,229.081,175.806z"/>
	<path style="fill:#FFCC66;" d="M357.385,14.915c-3.795,0.658-6.256,2.084-9.158,3.767c-4.451,2.579-9.496,5.503-19.174,5.503
		c-9.676,0-14.721-2.924-19.172-5.503c-4.006-2.322-7.17-4.155-14.16-4.155c-6.984,0-10.146,1.833-14.152,4.154
		c-4.451,2.58-9.496,5.504-19.174,5.504c-9.676,0-14.719-2.924-19.17-5.503c-4.004-2.322-7.168-4.155-14.155-4.155
		c-6.986,0-10.15,1.833-14.154,4.155c-4.451,2.579-9.494,5.503-19.17,5.503c-9.676,0-14.719-2.924-19.17-5.503
		c-4.004-2.322-7.168-4.155-14.155-4.155c-6.985,0-10.149,1.833-14.153,4.155c-4.449,2.579-9.492,5.503-19.167,5.503
		s-14.718-2.924-19.168-5.504c-2.901-1.682-5.36-3.107-9.151-3.766v22.012h256.604V14.915z"/>
	<path style="fill:#FFCC66;" d="M95.34,66.621c-3.433,27.189-7.245,77.833-7.245,141.746c0,63.905,3.812,114.551,7.244,141.744
		h267.487c3.432-27.192,7.242-77.838,7.242-141.744c0-63.912-3.812-114.557-7.244-141.746H95.34z M229.081,319.109
		c-61.063,0-110.743-49.679-110.743-110.742c0-61.064,49.68-110.743,110.743-110.743c61.065,0,110.745,49.679,110.745,110.743
		C339.826,269.43,290.147,319.109,229.081,319.109z"/>
	<path style="fill:#669933;" d="M258.1,272.386c3.131,0.815,7.957-1.582,10.291-3.916c6.209-6.21,11.6-17.177,10.99-24.434
		c-7.254-0.607-18.225,4.782-24.436,10.992c-2.332,2.332-3.74,5.266-3.963,8.258c-0.053,0.698-0.033,1.376,0.047,2.029l9.82-9.82
		c1.951-1.953,5.119-1.953,7.07,0c1.953,1.952,1.953,5.118,0,7.07L258.1,272.386z"/>
	<path style="fill:#669933;" d="M197.314,255.496l9.823,9.824c0.431-3.387-0.921-7.292-3.921-10.292
		c-6.209-6.209-17.177-11.599-24.433-10.99c-0.608,7.256,4.782,18.224,10.991,24.433c2.998,2.999,6.904,4.35,10.291,3.92
		l-9.824-9.824c-1.952-1.952-1.952-5.118,0-7.07C192.197,253.543,195.361,253.543,197.314,255.496z"/>
	<path style="fill:#CCFF66;" d="M229.081,107.623c-55.549,0-100.743,45.192-100.743,100.743c0,53.872,42.507,98.003,95.743,100.617
		v-12.577l-16.205-16.206c-2.754,1.491-5.857,2.243-9.041,2.243c-5.66,0-11.56-2.33-16.132-6.902
		c-7.997-7.997-17.269-24.882-12.843-37.382c0.524-1.478,1.682-2.535,3.053-3.022l-0.008-0.022
		c12.498-4.429,29.385,4.843,37.383,12.841c7.145,7.145,8.791,17.517,4.651,25.166l9.142,9.143v-40.833
		c-8.875-2.034-15.763-9.338-17.14-18.442c-2.589,1.012-5.351,1.537-8.141,1.537c-7.975,0-15.412-4.287-19.406-11.189
		c-5.586-9.718-3.075-21.909,5.409-28.691c-8.488-6.783-10.998-18.975-5.416-28.678c3.996-6.917,11.434-11.209,19.412-11.209
		c2.787,0,5.551,0.527,8.142,1.543c1.628-10.756,10.934-19.025,22.136-19.025c11.204,0,20.51,8.271,22.137,19.025
		c2.596-1.016,5.363-1.543,8.152-1.543c7.988,0,15.422,4.295,19.398,11.209c5.6,9.691,3.092,21.889-5.412,28.679
		c8.5,6.79,11.008,18.985,5.408,28.685c-3.998,6.906-11.434,11.193-19.406,11.193c-2.789,0-5.551-0.529-8.139-1.547
		c-1.373,9.107-8.26,16.413-17.135,18.45v40.834l9.133-9.133c-1.705-3.121-2.492-6.742-2.205-10.587
		c0.4-5.379,2.838-10.561,6.865-14.588c8-7.998,24.885-17.271,37.383-12.841l-0.008,0.021c1.371,0.487,2.527,1.545,3.051,3.022
		c4.43,12.499-4.842,29.385-12.838,37.383c-4.029,4.026-9.209,6.465-14.59,6.866c-0.527,0.039-5.988,0.348-10.598-2.196
		l-16.193,16.194v12.578c53.236-2.614,95.744-46.745,95.744-100.617C329.826,152.816,284.633,107.623,229.081,107.623z"/>
	<path style="fill:#FFCC66;" d="M241.467,219.628v-4.873c0-1.785,0.953-3.436,2.498-4.328c1.545-0.895,3.449-0.896,4.998-0.004
		l4.209,2.424c1.895,1.101,4.027,1.68,6.184,1.68c4.418,0,8.535-2.375,10.75-6.199c3.412-5.91,1.377-13.504-4.539-16.921
		l-4.209-2.428c-1.549-0.894-2.502-2.544-2.502-4.331c0-1.788,0.955-3.439,2.504-4.332l4.211-2.428
		c5.914-3.416,7.949-11.01,4.533-16.924c-2.203-3.829-6.316-6.203-10.736-6.203c-2.16,0-4.303,0.576-6.195,1.666l-4.205,2.428
		c-1.547,0.893-3.453,0.893-5,0c-1.547-0.894-2.5-2.545-2.5-4.33v-4.857c0-6.831-5.557-12.389-12.389-12.389
		c-6.83,0-12.389,5.558-12.389,12.389v4.857c0,1.785-0.951,3.436-2.498,4.329c-1.547,0.894-3.453,0.894-5,0.001l-4.211-2.43
		c-1.887-1.089-4.023-1.664-6.18-1.664c-4.42,0-8.538,2.377-10.749,6.203c-3.403,5.916-1.368,13.514,4.54,16.926l4.207,2.426
		c1.549,0.893,2.503,2.544,2.503,4.332c0,1.787-0.954,3.438-2.501,4.331l-4.211,2.429c-5.905,3.41-7.939,11.008-4.532,16.934
		c2.205,3.811,6.325,6.186,10.744,6.186c2.167,0,4.303-0.572,6.178-1.655l4.199-2.439c0.776-0.451,1.644-0.677,2.512-0.677
		c0.86,0,1.722,0.223,2.493,0.666c1.551,0.893,2.506,2.545,2.506,4.334v4.873c0,6.832,5.559,12.389,12.389,12.389
		C235.91,232.017,241.467,226.46,241.467,219.628z M210.241,184.648c0-10.39,8.452-18.842,18.841-18.842
		c10.391,0,18.842,8.452,18.842,18.842c0,10.389-8.451,18.841-18.842,18.841C218.693,203.489,210.241,195.037,210.241,184.648z"/>
	<path style="fill:#663333;" d="M247.924,184.648c0-10.39-8.451-18.842-18.842-18.842c-10.389,0-18.841,8.452-18.841,18.842
		c0,10.389,8.452,18.841,18.841,18.841C239.473,203.489,247.924,195.037,247.924,184.648z M229.081,193.489
		c-4.875,0-8.842-3.966-8.842-8.841s3.967-8.842,8.842-8.842c4.876,0,8.842,3.967,8.842,8.842S233.957,193.489,229.081,193.489z"/>
	<path style="fill:#663333;" d="M229.081,97.623c-61.063,0-110.743,49.679-110.743,110.743c0,61.064,49.68,110.742,110.743,110.742
		c61.065,0,110.745-49.679,110.745-110.742C339.826,147.302,290.147,97.623,229.081,97.623z M229.078,232.017
		c-6.83,0-12.389-5.557-12.389-12.389v-4.873c0-1.789-0.955-3.441-2.506-4.334c-0.771-0.443-1.633-0.666-2.493-0.666
		c-0.868,0-1.735,0.226-2.512,0.677l-4.199,2.439c-1.875,1.083-4.011,1.655-6.178,1.655c-4.419,0-8.539-2.375-10.744-6.186
		c-3.407-5.926-1.373-13.523,4.532-16.934l4.211-2.429c1.547-0.894,2.501-2.544,2.501-4.331c0-1.788-0.954-3.439-2.503-4.332
		l-4.207-2.426c-5.908-3.412-7.943-11.01-4.54-16.926c2.211-3.826,6.329-6.203,10.749-6.203c2.156,0,4.293,0.575,6.18,1.664
		l4.211,2.43c1.547,0.893,3.453,0.893,5-0.001c1.547-0.894,2.498-2.544,2.498-4.329v-4.857c0-6.831,5.559-12.389,12.389-12.389
		c6.833,0,12.389,5.558,12.389,12.389v4.857c0,1.785,0.953,3.436,2.5,4.33c1.547,0.893,3.453,0.893,5,0l4.205-2.428
		c1.893-1.09,4.035-1.666,6.195-1.666c4.42,0,8.533,2.374,10.736,6.203c3.416,5.914,1.381,13.508-4.533,16.924l-4.211,2.428
		c-1.549,0.893-2.504,2.544-2.504,4.332c0,1.787,0.953,3.438,2.502,4.331l4.209,2.428c5.916,3.417,7.951,11.011,4.539,16.921
		c-2.215,3.824-6.332,6.199-10.75,6.199c-2.156,0-4.289-0.578-6.184-1.68l-4.209-2.424c-1.549-0.892-3.453-0.891-4.998,0.004
		c-1.545,0.893-2.498,2.543-2.498,4.328v4.873C241.467,226.46,235.91,232.017,229.078,232.017z M234.082,308.984v-12.578
		l16.193-16.194c4.609,2.544,10.07,2.235,10.598,2.196c5.381-0.401,10.561-2.84,14.59-6.866
		c7.996-7.998,17.268-24.884,12.838-37.383c-0.523-1.477-1.68-2.535-3.051-3.022l0.008-0.021
		c-12.498-4.43-29.383,4.843-37.383,12.841c-4.027,4.027-6.465,9.209-6.865,14.588c-0.287,3.845,0.5,7.466,2.205,10.587
		l-9.133,9.133V241.43c8.875-2.037,15.762-9.343,17.135-18.45c2.588,1.018,5.35,1.547,8.139,1.547
		c7.973,0,15.408-4.287,19.406-11.193c5.6-9.699,3.092-21.895-5.408-28.685c8.504-6.79,11.012-18.987,5.412-28.679
		c-3.977-6.914-11.41-11.209-19.398-11.209c-2.789,0-5.557,0.527-8.152,1.543c-1.627-10.754-10.934-19.025-22.137-19.025
		c-11.201,0-20.508,8.27-22.136,19.025c-2.591-1.016-5.354-1.543-8.142-1.543c-7.979,0-15.416,4.292-19.412,11.209
		c-5.582,9.703-3.072,21.894,5.416,28.678c-8.484,6.781-10.995,18.973-5.409,28.691c3.994,6.901,11.431,11.189,19.406,11.189
		c2.79,0,5.552-0.525,8.141-1.537c1.377,9.105,8.265,16.408,17.14,18.442v40.833l-9.142-9.143c4.14-7.65,2.493-18.021-4.651-25.166
		c-7.998-7.998-24.885-17.27-37.383-12.841l0.008,0.022c-1.371,0.487-2.528,1.544-3.053,3.022
		c-4.426,12.5,4.846,29.385,12.843,37.382c4.572,4.572,10.472,6.902,16.132,6.902c3.184,0,6.287-0.752,9.041-2.243l16.205,16.206
		v12.577c-53.236-2.614-95.743-46.745-95.743-100.617c0-55.551,45.194-100.743,100.743-100.743
		c55.551,0,100.745,45.192,100.745,100.743C329.826,262.239,287.318,306.37,234.082,308.984z M267.92,255.496
		c-1.951-1.953-5.119-1.953-7.07,0l-9.82,9.82c-0.08-0.653-0.1-1.331-0.047-2.029c0.223-2.992,1.631-5.926,3.963-8.258
		c6.211-6.21,17.182-11.6,24.436-10.992c0.609,7.257-4.781,18.224-10.99,24.434c-2.334,2.334-7.16,4.731-10.291,3.916l9.82-9.82
		C269.873,260.614,269.873,257.448,267.92,255.496z M190.242,262.566l9.824,9.824c-3.387,0.43-7.293-0.921-10.291-3.92
		c-6.209-6.209-11.6-17.177-10.991-24.433c7.256-0.608,18.224,4.781,24.433,10.99c3,3,4.352,6.905,3.921,10.292l-9.823-9.824
		c-1.953-1.952-5.117-1.952-7.072,0C188.289,257.448,188.289,260.614,190.242,262.566z"/>
	<path style="fill:#663333;" d="M367.385,39.935V9.526c0-2.761-2.238-5-5-5c-9.676,0-14.721,2.924-19.172,5.503
		c-4.006,2.322-7.17,4.155-14.16,4.155c-6.988,0-10.152-1.833-14.158-4.155c-4.451-2.58-9.496-5.503-19.174-5.503
		c-9.674,0-14.717,2.923-19.166,5.503c-4.006,2.322-7.17,4.156-14.16,4.156c-6.986,0-10.148-1.833-14.154-4.155
		c-4.449-2.58-9.494-5.503-19.17-5.503c-9.676,0-14.721,2.924-19.17,5.503c-4.004,2.322-7.168,4.155-14.154,4.155
		c-6.986,0-10.15-1.833-14.154-4.155c-4.451-2.58-9.494-5.503-19.171-5.503c-9.675,0-14.719,2.924-19.169,5.504
		c-4.004,2.321-7.166,4.155-14.151,4.155c-6.985,0-10.148-1.833-14.152-4.155c-4.45-2.58-9.493-5.504-19.167-5.504
		c-2.762,0-5,2.239-5,5v30.409c-3.046,5.542-6.677,35.588-7.96,50.307c-1.765,20.242-4.726,62.506-4.726,118.125
		s2.258,97.956,4.726,118.124c2.669,21.815,3.497,35.566,7.96,50.307v30.409c0,2.762,2.238,5,5,5c9.676,0,14.721-2.924,19.172-5.504
		c4.006-2.321,7.17-4.154,14.158-4.154c6.989,0,10.153,1.834,14.159,4.154c4.451,2.58,9.496,5.504,19.173,5.504
		c9.676,0,14.721-2.924,19.17-5.504c4.006-2.321,7.169-4.154,14.156-4.154c6.987,0,10.15,1.833,14.156,4.154
		c4.449,2.58,9.494,5.504,19.17,5.504c9.674,0,14.719-2.924,19.168-5.504c4.006-2.32,7.168-4.154,14.156-4.154
		c6.986,0,10.15,1.833,14.154,4.154c4.451,2.58,9.494,5.504,19.17,5.504c9.676,0,14.719-2.924,19.168-5.504
		c4.004-2.321,7.168-4.154,14.152-4.154c6.986,0,10.148,1.833,14.152,4.154c4.451,2.58,9.494,5.504,19.168,5.504
		c2.762,0,5-2.238,5-5v-30.408c3.555-6.542,6.676-35.588,7.959-50.308c1.766-20.241,4.725-62.503,4.725-118.124
		s-3.289-97.857-4.725-118.125C374.1,72.669,369.037,42.7,367.385,39.935z M100.781,14.915c3.791,0.658,6.25,2.084,9.151,3.766
		c4.45,2.58,9.493,5.504,19.168,5.504s14.718-2.924,19.167-5.503c4.004-2.322,7.168-4.155,14.153-4.155
		c6.987,0,10.151,1.833,14.155,4.155c4.451,2.579,9.494,5.503,19.17,5.503c9.676,0,14.719-2.924,19.17-5.503
		c4.004-2.322,7.168-4.155,14.154-4.155c6.987,0,10.151,1.833,14.155,4.155c4.451,2.579,9.494,5.503,19.17,5.503
		c9.678,0,14.723-2.924,19.174-5.504c4.006-2.321,7.168-4.154,14.152-4.154c6.99,0,10.154,1.833,14.16,4.155
		c4.451,2.579,9.496,5.503,19.172,5.503c9.678,0,14.723-2.924,19.174-5.503c2.902-1.682,5.363-3.108,9.158-3.767v22.013H100.781
		V14.915z M98.681,46.927h260.803c0.57,1.984,1.23,5.254,1.936,9.694H96.746C97.451,52.182,98.111,48.911,98.681,46.927z
		 M357.385,401.818c-3.791-0.658-6.25-2.084-9.152-3.766c-4.449-2.58-9.492-5.504-19.168-5.504c-9.674,0-14.717,2.924-19.168,5.504
		c-4.004,2.32-7.166,4.154-14.152,4.154s-10.148-1.834-14.154-4.155c-4.449-2.579-9.494-5.503-19.17-5.503
		s-14.721,2.924-19.172,5.504c-4.004,2.32-7.166,4.154-14.153,4.154c-6.988,0-10.15-1.834-14.156-4.155
		c-4.449-2.579-9.494-5.503-19.17-5.503c-9.676,0-14.721,2.924-19.17,5.503c-4.006,2.321-7.169,4.155-14.156,4.155
		c-6.988,0-10.152-1.834-14.158-4.155c-4.451-2.579-9.496-5.503-19.174-5.503c-9.676,0-14.721,2.924-19.172,5.503
		c-2.903,1.683-5.364,3.108-9.158,3.767v-22.013h256.604V401.818z M359.486,369.805H98.679c-0.57-1.986-1.229-5.257-1.934-9.694
		H361.42C360.717,364.548,360.057,367.819,359.486,369.805z M362.826,350.111H95.339c-3.432-27.193-7.244-77.839-7.244-141.744
		c0-63.912,3.812-114.557,7.245-141.746h267.484c3.432,27.188,7.244,77.833,7.244,141.746
		C370.068,272.273,366.258,322.918,362.826,350.111z"/>
</g>
<path style="fill:none;stroke:#000000;stroke-width:10;stroke-linecap:round;stroke-linejoin:round;stroke-miterlimit:10;" d="
	M32.138,0"/>
</svg>