<?xml version="1.0" encoding="iso-8859-1"?>
<!-- Uploaded to: SVG Repo, www.svgrepo.com, Generator: SVG Repo Mixer Tools -->
<svg height="800px" width="800px" version="1.1" id="Capa_1" xmlns="http://www.w3.org/2000/svg" xmlns:xlink="http://www.w3.org/1999/xlink" 
	 viewBox="0 0 392.075 392.075" xml:space="preserve">
<g>
	<path style="fill:#669933;" d="M10.137,180.908c-0.915,8.177,5.176,20.757,12.233,27.813c3.73,3.73,8.696,5.23,12.811,4.3
		l-11.558-11.558c-1.953-1.952-1.953-5.118,0-7.07c1.953-1.953,5.118-1.953,7.071,0l11.557,11.557
		c0.929-4.115-0.571-9.081-4.3-12.811C30.895,186.083,18.315,179.995,10.137,180.908z"/>
	<path style="fill:#669933;" d="M101.596,194.394c1.953-1.953,5.118-1.953,7.071,0c1.953,1.952,1.953,5.118,0,7.07L97.11,213.022
		c4.115,0.929,9.081-0.571,12.811-4.3c7.057-7.057,13.148-19.637,12.233-27.814c-8.177-0.914-20.757,5.176-27.813,12.232
		c-3.729,3.73-5.229,8.695-4.3,12.811L101.596,194.394z"/>
	<path style="fill:#FFCC66;" d="M210.235,116.056v-5.382c0-1.785,0.952-3.434,2.497-4.328c1.546-0.896,3.45-0.895,4.998-0.005
		l4.65,2.677c2.171,1.263,4.616,1.925,7.088,1.925c5.063,0,9.785-2.723,12.324-7.106c3.911-6.774,1.578-15.479-5.205-19.396
		l-4.647-2.681c-1.548-0.893-2.502-2.544-2.502-4.331c0-1.787,0.954-3.438,2.502-4.331l4.65-2.682
		c6.781-3.917,9.115-12.621,5.199-19.401c-2.525-4.389-7.24-7.11-12.307-7.11c-2.477,0-4.933,0.66-7.101,1.909l-4.648,2.682
		c-1.547,0.892-3.453,0.891-4.999-0.001c-1.547-0.894-2.5-2.544-2.5-4.33V38.8c0-7.83-6.371-14.201-14.202-14.201
		c-7.831,0-14.202,6.371-14.202,14.201v5.363c0,1.786-0.953,3.437-2.499,4.33c-1.546,0.893-3.453,0.893-4.999,0.001l-4.65-2.683
		c-2.163-1.249-4.612-1.908-7.085-1.908c-5.065,0-9.786,2.725-12.321,7.11c-3.902,6.783-1.57,15.491,5.203,19.402l4.648,2.68
		c1.548,0.894,2.502,2.545,2.502,4.332c0,1.787-0.954,3.438-2.502,4.332l-4.651,2.682c-6.769,3.908-9.1,12.616-5.195,19.409
		c2.53,4.369,7.252,7.092,12.317,7.092c2.483,0,4.932-0.656,7.082-1.897l4.638-2.694c0.776-0.451,1.644-0.677,2.512-0.677
		c0.861,0,1.722,0.222,2.494,0.667c1.55,0.892,2.506,2.544,2.506,4.333v5.382c0,7.83,6.371,14.201,14.202,14.201
		C203.864,130.257,210.235,123.886,210.235,116.056z M175.753,77.428c0-11.186,9.1-20.285,20.285-20.285
		c11.185,0,20.285,9.1,20.285,20.285c0,11.185-9.1,20.284-20.285,20.284C184.853,97.712,175.753,88.612,175.753,77.428z"/>
	<path style="fill:#FF6666;" d="M206.323,77.428c0-5.671-4.614-10.285-10.285-10.285s-10.285,4.614-10.285,10.285
		c0,5.671,4.614,10.284,10.285,10.284S206.323,83.099,206.323,77.428z"/>
	<path style="fill:#CC9933;" d="M76.43,115.791c0-5.671-4.614-10.285-10.285-10.285c-5.671,0-10.285,4.614-10.285,10.285
		s4.614,10.284,10.285,10.284C71.816,126.075,76.43,121.462,76.43,115.791z"/>
	<path style="fill:#669933;" d="M140.03,142.545c-0.914,8.178,5.177,20.757,12.233,27.813c3.73,3.73,8.696,5.229,12.811,4.3
		l-11.558-11.558c-1.953-1.952-1.953-5.118,0-7.07c1.953-1.953,5.118-1.953,7.071,0l11.557,11.557
		c0.929-4.115-0.571-9.081-4.3-12.811C160.787,147.72,148.208,141.633,140.03,142.545z"/>
	<path style="fill:#669933;" d="M269.922,180.908c-0.915,8.177,5.176,20.757,12.233,27.813c3.729,3.73,8.696,5.23,12.811,4.3
		l-11.558-11.558c-1.953-1.952-1.953-5.118,0-7.07c1.953-1.953,5.118-1.953,7.071,0l11.557,11.557
		c0.928-4.115-0.571-9.081-4.3-12.811C290.68,186.083,278.1,179.995,269.922,180.908z"/>
	<path style="fill:#669933;" d="M231.489,156.03c1.953-1.953,5.118-1.953,7.071,0c1.953,1.952,1.953,5.118,0,7.07l-11.557,11.558
		c4.115,0.928,9.081-0.571,12.81-4.3c7.057-7.057,13.147-19.637,12.233-27.813c-8.178-0.913-20.757,5.175-27.813,12.231
		c-3.73,3.73-5.229,8.695-4.3,12.811L231.489,156.03z"/>
	<path style="fill:#CC9933;" d="M325.93,105.506c-5.671,0-10.285,4.614-10.285,10.285s4.614,10.284,10.285,10.284
		s10.285-4.613,10.285-10.284S331.601,105.506,325.93,105.506z"/>
	<path style="fill:#CC9933;" d="M30.15,271.952c0,4.431,3.605,8.036,8.037,8.036h315.702c4.432,0,8.037-3.605,8.037-8.036
		c0-4.432-3.605-8.037-8.037-8.037H38.187C33.755,263.915,30.15,267.521,30.15,271.952z"/>
	<path style="fill:#FF6666;" d="M340.127,154.419v-5.382c0-1.785,0.952-3.434,2.497-4.328c1.546-0.895,3.45-0.895,4.998-0.005
		l4.65,2.677c2.171,1.263,4.616,1.925,7.088,1.925c5.063,0,9.785-2.723,12.324-7.106c3.911-6.774,1.578-15.479-5.205-19.396
		l-4.647-2.681c-1.548-0.893-2.502-2.544-2.502-4.331s0.954-3.438,2.502-4.331l4.65-2.682c6.781-3.917,9.115-12.621,5.199-19.401
		c-2.525-4.389-7.24-7.11-12.307-7.11c-2.478,0-4.933,0.66-7.101,1.909l-4.648,2.682c-1.547,0.893-3.454,0.891-4.999-0.001
		c-1.547-0.894-2.499-2.544-2.499-4.33v-5.363c0-7.83-6.371-14.201-14.202-14.201c-7.831,0-14.202,6.371-14.202,14.201v5.363
		c0,1.786-0.953,3.437-2.5,4.33c-1.546,0.893-3.452,0.894-4.999,0.001l-4.65-2.683c-2.163-1.249-4.612-1.908-7.085-1.908
		c-5.065,0-9.786,2.725-12.321,7.11c-3.902,6.783-1.57,15.491,5.203,19.402l4.648,2.68c1.548,0.894,2.502,2.545,2.502,4.332
		s-0.954,3.438-2.502,4.332l-4.651,2.682c-6.769,3.908-9.1,12.616-5.195,19.409c2.53,4.369,7.252,7.092,12.317,7.092
		c2.483,0,4.932-0.656,7.082-1.897l4.638-2.694c0.776-0.451,1.644-0.677,2.512-0.677c0.861,0,1.722,0.222,2.494,0.667
		c1.55,0.892,2.506,2.544,2.506,4.333v5.382c0,7.83,6.371,14.201,14.202,14.201C333.756,168.62,340.127,162.249,340.127,154.419z
		 M305.645,115.791c0-11.186,9.1-20.285,20.285-20.285c11.185,0,20.285,9.1,20.285,20.285c0,11.185-9.1,20.284-20.285,20.284
		C314.745,136.075,305.645,126.976,305.645,115.791z"/>
	<path style="fill:#669933;" d="M354.124,193.14c-3.729,3.73-5.228,8.695-4.3,12.811l11.557-11.557c1.953-1.953,5.118-1.953,7.071,0
		c1.953,1.952,1.953,5.118,0,7.07l-11.558,11.558c4.115,0.929,9.082-0.571,12.811-4.3c7.057-7.057,13.148-19.637,12.233-27.814
		C373.761,179.993,361.181,186.083,354.124,193.14z"/>
	<polygon style="fill:#FFCC66;" points="52.631,367.477 339.446,367.477 347.656,289.988 44.419,289.988 	"/>
	<path style="fill:#FF6666;" d="M80.342,154.419v-5.382c0-1.785,0.952-3.434,2.497-4.328c1.546-0.895,3.45-0.895,4.998-0.005
		l4.65,2.677c2.171,1.263,4.616,1.925,7.088,1.925c5.063,0,9.785-2.723,12.324-7.106c3.911-6.774,1.578-15.479-5.205-19.396
		l-4.647-2.681c-1.548-0.893-2.503-2.544-2.503-4.331s0.954-3.438,2.503-4.331l4.65-2.682c6.781-3.917,9.115-12.621,5.199-19.401
		c-2.525-4.389-7.24-7.11-12.307-7.11c-2.478,0-4.933,0.66-7.101,1.909l-4.648,2.682c-1.547,0.893-3.454,0.891-4.999-0.001
		c-1.547-0.894-2.5-2.544-2.5-4.33v-5.363c0-7.83-6.371-14.201-14.202-14.201c-7.831,0-14.202,6.371-14.202,14.201v5.363
		c0,1.786-0.953,3.437-2.5,4.33c-1.546,0.893-3.453,0.894-4.999,0.001l-4.65-2.683c-2.163-1.249-4.612-1.908-7.085-1.908
		c-5.065,0-9.786,2.725-12.321,7.11c-3.902,6.783-1.57,15.491,5.203,19.402l4.648,2.68c1.548,0.894,2.503,2.545,2.503,4.332
		s-0.954,3.438-2.503,4.332l-4.651,2.682c-6.768,3.908-9.1,12.616-5.195,19.409c2.53,4.369,7.252,7.092,12.317,7.092
		c2.483,0,4.932-0.656,7.082-1.897l4.638-2.694c0.776-0.451,1.644-0.677,2.512-0.677c0.861,0,1.722,0.222,2.494,0.667
		c1.55,0.892,2.506,2.544,2.506,4.333v5.382c0,7.83,6.371,14.201,14.202,14.201C73.971,168.62,80.342,162.249,80.342,154.419z
		 M45.861,115.791c0-11.186,9.1-20.285,20.285-20.285c11.185,0,20.285,9.1,20.285,20.285c0,11.185-9.1,20.284-20.285,20.284
		C54.96,136.075,45.861,126.976,45.861,115.791z"/>
	<path style="fill:#663333;" d="M86.43,115.791c0-11.186-9.1-20.285-20.285-20.285c-11.185,0-20.285,9.1-20.285,20.285
		c0,11.185,9.1,20.284,20.285,20.284C77.33,136.075,86.43,126.976,86.43,115.791z M55.861,115.791
		c0-5.671,4.614-10.285,10.285-10.285c5.671,0,10.285,4.614,10.285,10.285s-4.614,10.284-10.285,10.284
		C60.474,126.075,55.861,121.462,55.861,115.791z"/>
	<path style="fill:#663333;" d="M346.215,115.791c0-11.186-9.1-20.285-20.285-20.285c-11.185,0-20.285,9.1-20.285,20.285
		c0,11.185,9.1,20.284,20.285,20.284C337.115,136.075,346.215,126.976,346.215,115.791z M325.93,126.075
		c-5.671,0-10.285-4.613-10.285-10.284s4.614-10.285,10.285-10.285s10.285,4.614,10.285,10.285S331.601,126.075,325.93,126.075z"/>
	<path style="fill:#663333;" d="M387.783,172.033l0.007-0.021c-13.588-4.816-32.001,5.322-40.737,14.058
		c-7.83,7.83-9.564,19.234-4.861,27.513l-11.262,11.263v-46.764c10.004-2.114,17.755-10.41,19.017-20.7
		c2.972,1.265,6.176,1.925,9.413,1.925c8.618,0,16.656-4.634,20.981-12.1c6.166-10.683,3.236-24.163-6.373-31.415
		c9.61-7.251,12.541-20.733,6.375-31.409c-4.3-7.473-12.335-12.115-20.97-12.115c-3.237,0-6.448,0.658-9.429,1.92
		c-1.472-11.945-11.682-21.225-24.02-21.225c-12.337,0-22.547,9.278-24.02,21.223c-2.976-1.261-6.182-1.918-9.416-1.918
		c-8.626,0-16.664,4.64-20.984,12.116c-6.148,10.687-3.216,24.164,6.377,31.408c-9.59,7.24-12.523,20.72-6.37,31.42
		c4.319,7.46,12.357,12.095,20.978,12.095c3.238,0,6.441-0.653,9.414-1.91c1.267,10.285,9.02,18.578,19.024,20.688v46.761
		l-11.262-11.263c4.703-8.278,2.969-19.683-4.861-27.513c-8.735-8.735-27.149-18.868-40.737-14.058l0.008,0.022
		c-1.371,0.486-2.527,1.543-3.051,3.021c-4.814,13.589,5.322,32.003,14.057,40.737c4.948,4.948,11.329,7.472,17.445,7.472
		c3.562,0,7.023-0.878,10.07-2.608l18.331,18.33v14.93H201.038v-53.293l18.331-18.33c3.047,1.731,6.508,2.608,10.07,2.608
		c6.116,0,12.498-2.523,17.445-7.472c8.735-8.734,18.872-27.148,14.057-40.737c-0.524-1.479-1.68-2.535-3.051-3.021l0.008-0.021
		c-13.587-4.816-32.001,5.322-40.737,14.058c-7.83,7.83-9.563,19.234-4.861,27.513l-11.262,11.263v-46.764
		c10.004-2.114,17.755-10.41,19.017-20.7c2.972,1.265,6.176,1.925,9.413,1.925c8.618,0,16.656-4.634,20.981-12.1
		c6.166-10.683,3.236-24.163-6.372-31.415c9.61-7.251,12.541-20.733,6.375-31.409c-4.3-7.473-12.335-12.115-20.97-12.115
		c-3.237,0-6.448,0.658-9.429,1.92c-1.472-11.945-11.682-21.225-24.02-21.225c-12.336,0-22.547,9.278-24.02,21.223
		c-2.976-1.261-6.182-1.918-9.416-1.918c-8.625,0-16.664,4.64-20.984,12.116c-6.148,10.687-3.216,24.164,6.377,31.408
		c-9.59,7.24-12.522,20.72-6.37,31.42c4.319,7.46,12.357,12.095,20.979,12.095c3.238,0,6.441-0.653,9.414-1.91
		c1.267,10.285,9.02,18.578,19.024,20.688v46.761l-11.262-11.263c4.702-8.278,2.969-19.683-4.861-27.513
		c-8.735-8.735-27.148-18.868-40.737-14.058l0.008,0.021c-1.371,0.487-2.528,1.544-3.051,3.021
		c-4.814,13.589,5.322,32.003,14.057,40.737c4.948,4.948,11.329,7.472,17.445,7.472c3.562,0,7.023-0.878,10.07-2.608l18.331,18.33
		v53.293H71.145v-14.93l18.33-18.33c3.047,1.731,6.508,2.608,10.071,2.608c6.116,0,12.497-2.523,17.445-7.472
		c8.735-8.734,18.872-27.148,14.057-40.737c-0.523-1.479-1.68-2.535-3.051-3.021l0.007-0.021
		c-13.585-4.816-32.001,5.322-40.737,14.058c-7.83,7.83-9.563,19.234-4.861,27.513l-11.262,11.263v-46.764
		c10.004-2.114,17.755-10.41,19.017-20.7c2.972,1.265,6.176,1.925,9.413,1.925c8.618,0,16.656-4.634,20.981-12.1
		c6.166-10.683,3.236-24.163-6.372-31.415c9.61-7.251,12.542-20.733,6.376-31.409c-4.3-7.473-12.336-12.115-20.97-12.115
		c-3.237,0-6.448,0.658-9.429,1.92c-1.472-11.945-11.682-21.225-24.02-21.225c-12.336,0-22.547,9.278-24.02,21.223
		c-2.976-1.261-6.182-1.918-9.416-1.918c-8.625,0-16.664,4.64-20.984,12.116c-6.148,10.687-3.216,24.164,6.377,31.408
		c-9.59,7.24-12.522,20.72-6.37,31.42c4.319,7.46,12.357,12.095,20.978,12.095c3.238,0,6.441-0.653,9.414-1.91
		c1.267,10.285,9.02,18.578,19.024,20.688v46.761l-11.262-11.263c4.702-8.278,2.969-19.683-4.861-27.513
		c-8.735-8.735-27.15-18.868-40.737-14.058l0.008,0.022c-1.371,0.486-2.528,1.542-3.051,3.021
		c-4.814,13.589,5.322,32.003,14.057,40.737c4.948,4.948,11.329,7.472,17.445,7.472c3.562,0,7.023-0.878,10.07-2.608l18.331,18.33
		v14.93H38.187c-9.945,0-18.037,8.092-18.037,18.037c0,8.616,6.077,15.831,14.168,17.607l8.842,83.444
		c0.27,2.543,2.415,4.473,4.972,4.473h295.811c2.558,0,4.703-1.93,4.972-4.473l8.841-83.444c8.091-1.776,14.168-8.991,14.168-17.607
		c0-9.945-8.091-18.037-18.037-18.037H330.93v-14.93l18.33-18.33c3.047,1.731,6.508,2.608,10.071,2.608
		c6.116,0,12.498-2.523,17.445-7.472c8.735-8.734,18.872-27.148,14.057-40.737C390.309,173.576,389.153,172.52,387.783,172.033z
		 M302.036,205.95l-11.557-11.557c-1.953-1.953-5.118-1.953-7.071,0c-1.953,1.952-1.953,5.118,0,7.07l11.558,11.558
		c-4.115,0.93-9.081-0.57-12.811-4.3c-7.057-7.057-13.148-19.637-12.233-27.813c8.178-0.913,20.757,5.175,27.814,12.231
		C301.465,196.869,302.964,201.835,302.036,205.95z M224.232,154.776c7.057-7.057,19.636-13.145,27.813-12.231
		c0.915,8.177-5.176,20.757-12.233,27.813c-3.73,3.729-8.695,5.228-12.81,4.3l11.557-11.558c1.953-1.952,1.953-5.118,0-7.07
		c-1.953-1.953-5.118-1.953-7.071,0l-11.557,11.557C219.003,163.472,220.503,158.506,224.232,154.776z M172.144,167.587
		l-11.557-11.557c-1.953-1.953-5.118-1.953-7.071,0c-1.953,1.952-1.953,5.118,0,7.07l11.558,11.558
		c-4.115,0.929-9.081-0.57-12.811-4.3c-7.057-7.057-13.147-19.636-12.233-27.813c8.179-0.912,20.757,5.175,27.814,12.231
		C171.573,158.506,173.073,163.472,172.144,167.587z M94.34,193.14c7.057-7.057,19.636-13.146,27.813-12.232
		c0.915,8.178-5.176,20.758-12.233,27.814c-3.729,3.729-8.696,5.229-12.811,4.3l11.558-11.558c1.953-1.952,1.953-5.118,0-7.07
		c-1.953-1.953-5.118-1.953-7.071,0L90.039,205.95C89.111,201.835,90.61,196.869,94.34,193.14z M42.251,205.95l-11.557-11.557
		c-1.953-1.953-5.118-1.953-7.071,0c-1.953,1.952-1.953,5.118,0,7.07l11.558,11.558c-4.115,0.93-9.081-0.57-12.811-4.3
		c-7.057-7.057-13.148-19.637-12.233-27.813c8.178-0.913,20.758,5.175,27.814,12.231C41.68,196.869,43.18,201.835,42.251,205.95z
		 M181.831,116.056v-5.382c0-1.789-0.955-3.441-2.506-4.333c-0.772-0.445-1.633-0.667-2.494-0.667c-0.868,0-1.735,0.226-2.512,0.677
		l-4.638,2.694c-2.15,1.241-4.599,1.897-7.082,1.897c-5.065,0-9.787-2.723-12.317-7.092c-3.905-6.793-1.574-15.501,5.195-19.409
		l4.651-2.682c1.548-0.894,2.502-2.545,2.502-4.332c0-1.787-0.954-3.438-2.502-4.332l-4.648-2.68
		c-6.773-3.911-9.105-12.619-5.203-19.402c2.535-4.386,7.255-7.11,12.321-7.11c2.473,0,4.922,0.659,7.085,1.908l4.65,2.683
		c1.546,0.892,3.453,0.892,4.999-0.001c1.547-0.894,2.499-2.544,2.499-4.33V38.8c0-7.83,6.371-14.201,14.202-14.201
		c7.831,0,14.202,6.371,14.202,14.201v5.363c0,1.786,0.953,3.437,2.5,4.33c1.546,0.892,3.452,0.893,4.999,0.001l4.648-2.682
		c2.167-1.249,4.623-1.909,7.101-1.909c5.067,0,9.781,2.722,12.307,7.11c3.915,6.78,1.582,15.484-5.199,19.401l-4.65,2.682
		c-1.548,0.893-2.502,2.544-2.502,4.331c0,1.787,0.954,3.438,2.502,4.331l4.647,2.681c6.783,3.917,9.116,12.622,5.205,19.396
		c-2.539,4.384-7.261,7.106-12.324,7.106c-2.472,0-4.917-0.662-7.088-1.925l-4.65-2.677c-1.547-0.89-3.451-0.891-4.998,0.005
		c-1.545,0.894-2.497,2.543-2.497,4.328v5.382c0,7.83-6.371,14.201-14.202,14.201C188.202,130.257,181.831,123.886,181.831,116.056z
		 M51.939,154.419v-5.382c0-1.789-0.956-3.441-2.506-4.333c-0.772-0.445-1.633-0.667-2.494-0.667c-0.868,0-1.735,0.226-2.512,0.677
		l-4.638,2.694c-2.15,1.241-4.599,1.897-7.082,1.897c-5.065,0-9.787-2.723-12.317-7.092c-3.905-6.793-1.574-15.501,5.195-19.409
		l4.651-2.682c1.548-0.894,2.503-2.545,2.503-4.332s-0.954-3.438-2.503-4.332l-4.648-2.68c-6.773-3.911-9.105-12.619-5.203-19.402
		c2.535-4.386,7.255-7.11,12.321-7.11c2.473,0,4.922,0.659,7.085,1.908l4.65,2.683c1.546,0.893,3.453,0.892,4.999-0.001
		c1.547-0.894,2.5-2.544,2.5-4.33v-5.363c0-7.83,6.371-14.201,14.202-14.201c7.831,0,14.202,6.371,14.202,14.201v5.363
		c0,1.786,0.953,3.437,2.5,4.33c1.545,0.892,3.452,0.894,4.999,0.001l4.648-2.682c2.168-1.249,4.623-1.909,7.101-1.909
		c5.067,0,9.781,2.722,12.307,7.11c3.915,6.78,1.582,15.484-5.199,19.401l-4.65,2.682c-1.548,0.893-2.503,2.544-2.503,4.331
		s0.954,3.438,2.503,4.331l4.647,2.681c6.783,3.917,9.116,12.622,5.205,19.396c-2.539,4.384-7.261,7.106-12.324,7.106
		c-2.472,0-4.916-0.662-7.088-1.925l-4.65-2.677c-1.548-0.891-3.452-0.89-4.998,0.005c-1.545,0.894-2.497,2.543-2.497,4.328v5.382
		c0,7.83-6.371,14.201-14.202,14.201C58.309,168.62,51.939,162.249,51.939,154.419z M339.446,367.477H52.631l-8.211-77.488h303.237
		L339.446,367.477z M353.889,263.915c4.432,0,8.037,3.605,8.037,8.037c0,4.431-3.605,8.036-8.037,8.036H38.187
		c-4.432,0-8.037-3.605-8.037-8.036c0-4.432,3.605-8.037,8.037-8.037H353.889z M325.925,168.62c-7.831,0-14.202-6.371-14.202-14.201
		v-5.382c0-1.789-0.956-3.441-2.506-4.333c-0.772-0.445-1.633-0.667-2.494-0.667c-0.868,0-1.735,0.226-2.512,0.677l-4.638,2.694
		c-2.15,1.241-4.599,1.897-7.082,1.897c-5.065,0-9.787-2.723-12.317-7.092c-3.905-6.793-1.574-15.501,5.195-19.409l4.651-2.682
		c1.548-0.894,2.502-2.545,2.502-4.332s-0.954-3.438-2.502-4.332l-4.648-2.68c-6.773-3.911-9.105-12.619-5.203-19.402
		c2.535-4.386,7.255-7.11,12.321-7.11c2.473,0,4.922,0.659,7.085,1.908l4.65,2.683c1.547,0.893,3.453,0.892,4.999-0.001
		c1.547-0.894,2.5-2.544,2.5-4.33v-5.363c0-7.83,6.371-14.201,14.202-14.201c7.831,0,14.202,6.371,14.202,14.201v5.363
		c0,1.786,0.953,3.437,2.499,4.33c1.546,0.892,3.452,0.894,4.999,0.001l4.648-2.682c2.168-1.249,4.623-1.909,7.101-1.909
		c5.067,0,9.781,2.722,12.307,7.11c3.916,6.78,1.582,15.484-5.199,19.401l-4.65,2.682c-1.548,0.893-2.502,2.544-2.502,4.331
		s0.954,3.438,2.502,4.331l4.647,2.681c6.783,3.917,9.116,12.622,5.205,19.396c-2.539,4.384-7.261,7.106-12.324,7.106
		c-2.472,0-4.916-0.662-7.088-1.925l-4.65-2.677c-1.547-0.891-3.451-0.89-4.998,0.005c-1.545,0.894-2.497,2.543-2.497,4.328v5.382
		C340.127,162.249,333.756,168.62,325.925,168.62z M369.705,208.722c-3.729,3.729-8.695,5.229-12.811,4.3l11.558-11.558
		c1.953-1.952,1.953-5.118,0-7.07c-1.953-1.953-5.118-1.953-7.071,0l-11.557,11.557c-0.928-4.115,0.571-9.081,4.3-12.811
		c7.057-7.057,19.637-13.146,27.814-12.232C382.853,189.085,376.762,201.665,369.705,208.722z"/>
	<path style="fill:#663333;" d="M216.323,77.428c0-11.186-9.1-20.285-20.285-20.285c-11.185,0-20.285,9.1-20.285,20.285
		c0,11.185,9.1,20.284,20.285,20.284C207.223,97.712,216.323,88.612,216.323,77.428z M185.753,77.428
		c0-5.671,4.614-10.285,10.285-10.285s10.285,4.614,10.285,10.285c0,5.671-4.614,10.284-10.285,10.284
		S185.753,83.099,185.753,77.428z"/>
</g>
</svg>